<svg xmlns="http://www.w3.org/2000/svg" width="508" height="340" viewBox="0 0 508 340">
  <rect width="508" height="340" fill="#e8e8f0"/>
  <!-- Kitchen island style -->
  <rect x="100" y="150" width="308" height="90" rx="5" fill="#c0c0d8" stroke="#9696b8" stroke-width="2"/>
  <!-- Drawers -->
  <rect x="110" y="158" width="140" height="25" rx="3" fill="#d0d0e0" stroke="#9696b8" stroke-width="1.5"/>
  <rect x="110" y="190" width="140" height="25" rx="3" fill="#d0d0e0" stroke="#9696b8" stroke-width="1.5"/>
  <rect x="110" y="222" width="140" height="12" rx="3" fill="#d0d0e0" stroke="#9696b8" stroke-width="1.5"/>
  <!-- Drawer handles -->
  <rect x="165" y="168" width="30" height="4" rx="2" fill="#8888a8"/>
  <rect x="165" y="200" width="30" height="4" rx="2" fill="#8888a8"/>
  <rect x="165" y="225" width="30" height="4" rx="2" fill="#8888a8"/>
  <!-- Cabinet door right side -->
  <rect x="260" y="158" width="138" height="76" rx="3" fill="#d0d0e0" stroke="#9696b8" stroke-width="1.5"/>
  <rect x="322" y="188" width="4" height="20" rx="2" fill="#8888a8"/>
  <!-- Countertop -->
  <rect x="90" y="140" width="328" height="14" rx="3" fill="#a8a8c8" stroke="#8888a8" stroke-width="1.5"/>
  <!-- Upper shelf -->
  <rect x="120" y="75" width="268" height="10" rx="2" fill="#b0b0c8" stroke="#9696b8" stroke-width="1"/>
  <!-- Items on shelf -->
  <rect x="140" y="50" width="18" height="25" rx="2" fill="#c0c0d8" stroke="#9696b8" stroke-width="1"/>
  <rect x="170" y="55" width="22" height="20" rx="3" fill="#c0c0d8" stroke="#9696b8" stroke-width="1"/>
  <rect x="210" y="45" width="16" height="30" rx="2" fill="#c0c0d8" stroke="#9696b8" stroke-width="1"/>
  <circle cx="260" cy="62" r="13" fill="#c0c0d8" stroke="#9696b8" stroke-width="1"/>
  <!-- Text label -->
  <text x="254" y="300" text-anchor="middle" font-family="Arial, sans-serif" font-size="22" font-weight="bold" fill="#7070a0">Кухня 3</text>
</svg>