<svg xmlns="http://www.w3.org/2000/svg" width="508" height="340" viewBox="0 0 508 340">
  <rect width="508" height="340" fill="#e8f0e8"/>
  <!-- L-shaped kitchen counter -->
  <rect x="80" y="160" width="280" height="90" rx="4" fill="#c0d0c0" stroke="#96b096" stroke-width="2"/>
  <!-- Counter doors -->
  <rect x="90" y="170" width="80" height="70" rx="3" fill="#d0e0d0" stroke="#96b096" stroke-width="1.5"/>
  <rect x="180" y="170" width="80" height="70" rx="3" fill="#d0e0d0" stroke="#96b096" stroke-width="1.5"/>
  <rect x="270" y="170" width="80" height="70" rx="3" fill="#d0e0d0" stroke="#96b096" stroke-width="1.5"/>
  <!-- Door handles -->
  <circle cx="162" cy="205" r="4" fill="#88a888"/>
  <circle cx="252" cy="205" r="4" fill="#88a888"/>
  <circle cx="342" cy="205" r="4" fill="#88a888"/>
  <!-- Countertop -->
  <rect x="70" y="150" width="300" height="14" rx="3" fill="#a8c0a8" stroke="#88a888" stroke-width="1.5"/>
  <!-- Side tall cabinet -->
  <rect x="370" y="70" width="70" height="180" rx="4" fill="#c0d0c0" stroke="#96b096" stroke-width="2"/>
  <rect x="378" y="78" width="54" height="80" rx="3" fill="#d0e0d0" stroke="#96b096" stroke-width="1.5"/>
  <rect x="378" y="166" width="54" height="76" rx="3" fill="#d0e0d0" stroke="#96b096" stroke-width="1.5"/>
  <!-- Tall cabinet handles -->
  <rect x="402" y="110" width="4" height="16" rx="2" fill="#88a888"/>
  <rect x="402" y="196" width="4" height="16" rx="2" fill="#88a888"/>
  <!-- Text label -->
  <text x="254" y="300" text-anchor="middle" font-family="Arial, sans-serif" font-size="22" font-weight="bold" fill="#6a8a6a">Кухня 2</text>
</svg>