<svg xmlns="http://www.w3.org/2000/svg" width="508" height="340" viewBox="0 0 508 340">
  <rect width="508" height="340" fill="#f0f0f0"/>
  <!-- Kitchen cabinet base -->
  <rect x="80" y="160" width="348" height="100" rx="4" fill="#d0d0d0" stroke="#b0b0b0" stroke-width="2"/>
  <!-- Cabinet doors -->
  <rect x="90" y="170" width="105" height="80" rx="3" fill="#dcdcdc" stroke="#b0b0b0" stroke-width="1.5"/>
  <rect x="205" y="170" width="105" height="80" rx="3" fill="#dcdcdc" stroke="#b0b0b0" stroke-width="1.5"/>
  <rect x="320" y="170" width="98" height="80" rx="3" fill="#dcdcdc" stroke="#b0b0b0" stroke-width="1.5"/>
  <!-- Door handles -->
  <rect x="185" y="200" width="4" height="20" rx="2" fill="#a0a0a0"/>
  <rect x="300" y="200" width="4" height="20" rx="2" fill="#a0a0a0"/>
  <rect x="408" y="200" width="4" height="20" rx="2" fill="#a0a0a0"/>
  <!-- Countertop -->
  <rect x="70" y="150" width="368" height="14" rx="3" fill="#c0c0c0" stroke="#a0a0a0" stroke-width="1.5"/>
  <!-- Upper cabinets -->
  <rect x="80" y="70" width="160" height="65" rx="4" fill="#d8d8d8" stroke="#b0b0b0" stroke-width="1.5"/>
  <rect x="250" y="70" width="160" height="65" rx="4" fill="#d8d8d8" stroke="#b0b0b0" stroke-width="1.5"/>
  <!-- Upper cabinet handles -->
  <rect x="150" y="100" width="20" height="4" rx="2" fill="#a0a0a0"/>
  <rect x="320" y="100" width="20" height="4" rx="2" fill="#a0a0a0"/>
  <!-- Text label -->
  <text x="254" y="300" text-anchor="middle" font-family="Arial, sans-serif" font-size="22" font-weight="bold" fill="#888888">Кухня 1</text>
</svg>